<mxfile host="Electron" compressed="false" modified="2022-10-25T09:56:35.273Z" agent="5.0 (Windows NT 10.0; Win64; x64) AppleWebKit/537.36 (KHTML, like Gecko) draw.io/20.3.0 Chrome/104.0.5112.114 Electron/20.1.3 Safari/537.36" etag="e-4iyHc4zjfrxmWeWvM0" version="20.3.0" type="device">
  <diagram id="ETWsS70P1tHz5V-jA7J0" name="Page-1">
    <mxGraphModel dx="1102" dy="875" grid="1" gridSize="10" guides="1" tooltips="1" connect="1" arrows="1" fold="1" page="1" pageScale="1" pageWidth="827" pageHeight="1169" math="0" shadow="0">
      <root>
        <mxCell id="0" />
        <mxCell id="1" parent="0" />
        <mxCell id="BewNrVXa_8q_rNuEyV7a-5" style="edgeStyle=orthogonalEdgeStyle;rounded=0;orthogonalLoop=1;jettySize=auto;html=1;exitX=1;exitY=0.5;exitDx=0;exitDy=0;entryX=0;entryY=0.5;entryDx=0;entryDy=0;" parent="1" source="BewNrVXa_8q_rNuEyV7a-2" target="BewNrVXa_8q_rNuEyV7a-3" edge="1">
          <mxGeometry relative="1" as="geometry" />
        </mxCell>
        <mxCell id="BewNrVXa_8q_rNuEyV7a-2" value="&lt;b&gt;Parent &lt;br&gt;or&lt;br&gt;Linked&lt;/b&gt;" style="shape=process;whiteSpace=wrap;html=1;backgroundOutline=1;fillColor=#d5e8d4;strokeColor=#82b366;" parent="1" vertex="1">
          <mxGeometry x="80" y="70" width="70" height="50" as="geometry" />
        </mxCell>
        <mxCell id="BewNrVXa_8q_rNuEyV7a-3" value="&lt;b&gt;Child&lt;br&gt;or&lt;br&gt;Link&lt;/b&gt;" style="shape=process;whiteSpace=wrap;html=1;backgroundOutline=1;fillColor=#d5e8d4;strokeColor=#82b366;" parent="1" vertex="1">
          <mxGeometry x="220" y="70" width="70" height="50" as="geometry" />
        </mxCell>
      </root>
    </mxGraphModel>
  </diagram>
</mxfile>
